# xmcd CD database file
#
# Track frame offsets:
#	150
#	25400
#	41327
#	61690
#	81932
#	106997
#	132192
#	153137
#	177045
#	192370
#	211309
#	231747
#
# Disc length: 3446 seconds
#
# Revision: 0
# Processed by: cddbd v1.5.1PL0 Copyright (c) Steve Scherf et al.
# Submitted via: CDex 1.60beta1
#
DISCID=990d740c
DTITLE=Various Artist - Samba Jazz Sunday
DYEAR=2002
DGENRE=Jazz
TTITLE0=Duduka Da Fonseca - Partido Out
TTITLE1=Ulisses Rocha - Agua De Beber
TTITLE2=Filó Machado - Take 5
TTITLE3=Nilson Matta - This Is For Luisa
TTITLE4=Ulisses Rocha - Ultima Hora
TTITLE5=Terra Brasi - Arara
TTITLE6=Tutty Moreno - Alegria De Vivir
TTITLE7=Trio Da Paz - Rosa
TTITLE8=Ladston Do Nascimento - Confins
TTITLE9=Café Jam - Pedra Grande
TTITLE10=Richard Boukas - Gajatucada
TTITLE11=Trio Da Paz - Blues Walk
EXTD=YEAR: 2002
EXTT0=
EXTT1=
EXTT2=
EXTT3=
EXTT4=
EXTT5=
EXTT6=
EXTT7=
EXTT8=
EXTT9=
EXTT10=
EXTT11=
PLAYORDER=
